# Blender v2.91.2 OBJ File: ''
# www.blender.org
mtllib Square.mtl
o Plane_Plane.002
v -1.000000 -1.000000 -0.000000
v 1.000000 -1.000000 -0.000000
v -1.000000 1.000000 0.000000
v 1.000000 1.000000 0.000000
v 1.000000 0.000000 0.000000
v -1.000000 0.000000 0.000000
v 0.000000 1.000000 0.000000
v 0.000000 -1.000000 -0.000000
v 0.000000 0.000000 0.000000
vt 0.500000 1.000000
vt 0.500000 0.500000
vt 1.000000 0.500000
vt 0.000000 0.500000
vt 0.000000 0.000000
vt 0.500000 0.000000
vt 1.000000 0.000000
vt 1.000000 1.000000
vt 0.000000 1.000000
vn 0.0000 -0.0000 1.0000
usemtl None
s off
f 7/1/1 9/2/1 5/3/1
f 6/4/1 1/5/1 8/6/1
f 8/6/1 2/7/1 5/3/1
f 5/3/1 4/8/1 7/1/1
f 7/1/1 3/9/1 6/4/1
f 8/6/1 9/2/1 6/4/1
f 7/1/1 6/4/1 9/2/1
f 8/6/1 5/3/1 9/2/1
