# Blender 3.5.1
# www.blender.org
mtllib wierd.mtl
o Icosphere
v -0.000001 -1.210177 0.000000
v 0.875697 -0.541220 0.636220
v -0.334476 -0.541220 1.029441
v -1.082417 -0.541211 0.000000
v -0.334476 -0.541220 -1.029441
v 0.875697 -0.541220 -0.636220
v 0.334476 0.541220 1.029441
v -0.875697 0.541220 0.636220
v 1.082417 0.541211 0.000000
v 0.000001 1.210177 -0.000000
v -0.202943 -1.062672 0.624613
v 0.531327 -1.062671 0.386026
v 0.328389 -0.656777 1.010650
v 1.062662 -0.656773 0.000000
v 0.531327 -1.062671 -0.386026
v -0.656765 -1.062666 0.000000
v -0.859716 -0.656775 0.624616
v -0.202943 -1.062672 -0.624613
v -0.859716 -0.656775 -0.624616
v 0.328389 -0.656777 -1.010650
v 1.188104 0.000001 0.386028
v 1.188104 0.000001 -0.386028
v 0.000000 0.000000 1.249245
v 0.734287 0.000000 1.010662
v -1.188104 -0.000001 0.386028
v -0.734287 -0.000000 1.010662
v -0.734287 -0.000000 -1.010662
v -1.188104 -0.000001 -0.386028
v 0.734287 0.000000 -1.010662
v 0.000000 0.000000 -1.249245
v 0.859716 0.656775 0.624616
v -0.328389 0.656777 1.010650
v 0.859716 0.656775 -0.624616
v 0.202943 1.062672 0.624613
v 0.656765 1.062667 0.000000
v -0.531327 1.062671 0.386026
v 0.202943 1.062672 -0.624613
v -1.172575 0.982810 0.263416
v -1.172575 0.982810 -1.009024
v 0.037598 0.982811 -1.402246
v -0.296877 1.651767 -0.372804
v -1.484982 0.441590 0.013224
v -1.031165 0.441590 -1.383466
v -1.484982 0.441590 -0.758832
v 0.437409 0.441591 -1.383466
v -0.296878 0.441591 -1.622050
v -1.359541 1.098363 -0.372804
v -0.625267 1.098367 -1.383454
v 0.562838 1.098365 -0.997421
v -0.828205 1.504262 0.013222
v -0.828205 1.504262 -0.758830
v -0.093935 1.504263 -0.997418
vn 0.0827 -0.9636 0.2544
vn 0.7113 -0.6245 0.3225
vn -0.2164 -0.9636 0.1572
vn -0.2164 -0.9636 -0.1572
vn 0.0827 -0.9636 -0.2544
vn 0.8767 -0.3570 0.3225
vn -0.0358 -0.3570 0.9334
vn -0.8988 -0.3570 0.2544
vn -0.5197 -0.3570 -0.7762
vn 0.5776 -0.3570 -0.7341
vn 0.7940 -0.1917 0.5769
vn -0.3033 -0.1917 0.9334
vn -0.9815 -0.1917 -0.0000
vn -0.3033 -0.1917 -0.9334
vn 0.7940 -0.1917 -0.5769
vn 0.3859 0.6245 0.6790
vn -0.5265 0.6245 0.5769
vn 0.2659 0.7200 0.6411
vn -0.2225 0.5373 0.8135
vn 0.7650 0.6245 -0.1572
vn 0.2164 0.9636 -0.1572
vn 0.4911 0.7947 -0.3568
vn -0.7193 0.0972 0.6879
vn -0.8299 -0.5579 -0.0000
vn 0.4530 0.7330 0.5075
vn -0.2173 -0.7108 -0.6689
vn -0.5607 -0.7209 -0.4074
vn 0.7804 0.6159 0.1081
vn -0.0827 0.9636 0.2544
vn -0.1876 0.7947 0.5773
vn 0.0869 0.6245 0.7762
vn 0.2164 0.9636 0.1572
vn 0.4911 0.7947 0.3568
vn 0.7650 0.6245 0.1572
vn 0.8988 0.3570 -0.2544
vn 0.7947 0.1876 -0.5773
vn -0.5776 0.3570 0.7341
vn -0.3035 0.1876 0.9342
vn 0.0358 0.3570 0.9334
vn 0.5197 0.3570 0.7762
vn 0.7947 0.1876 0.5773
vn 0.8988 0.3570 0.2544
vn 0.8482 0.1386 -0.5113
vn 0.3035 -0.1876 -0.9342
vn -0.0358 -0.3570 -0.9334
vn 0.2655 -0.5114 -0.8173
vn -0.7947 -0.1876 -0.5773
vn -0.8988 -0.3570 -0.2544
vn -0.7940 0.1917 0.5769
vn -0.7947 -0.1876 0.5773
vn -0.5197 -0.3570 0.7762
vn 0.3033 0.1917 0.9334
vn 0.3035 -0.1876 0.9342
vn 0.5776 -0.3570 0.7341
vn 0.9815 0.1917 -0.0000
vn 0.9822 -0.1876 -0.0000
vn 0.8767 -0.3570 -0.3225
vn 0.5265 -0.6245 -0.5769
vn 0.1876 -0.7947 -0.5773
vn -0.0869 -0.6245 -0.7762
vn -0.3859 -0.6245 -0.6790
vn -0.4911 -0.7947 -0.3568
vn -0.7650 -0.6245 -0.1572
vn -0.7650 -0.6245 0.1572
vn -0.4911 -0.7947 0.3568
vn -0.3859 -0.6245 0.6790
vn 0.7113 -0.6245 -0.3225
vn 0.6071 -0.7947 -0.0000
vn 0.2675 -0.9636 -0.0000
vn -0.0869 -0.6245 0.7762
vn 0.1876 -0.7947 0.5773
vn 0.5265 -0.6245 0.5769
vn -0.7113 0.6245 -0.3225
vn 0.0869 0.6245 -0.7762
vn 0.3859 0.6245 -0.6790
vn -0.0827 0.9636 -0.2544
vn -0.1876 0.7947 -0.5773
vn -0.5265 0.6245 -0.5769
vn -0.2675 0.9636 -0.0000
vn -0.6071 0.7947 -0.0000
vn -0.7113 0.6245 0.3225
vn 0.5197 0.3570 -0.7762
vn 0.0358 0.3570 -0.9334
vn -0.3035 0.1876 -0.9342
vn -0.5776 0.3570 -0.7341
vn -0.8767 0.3570 -0.3225
vn -0.9822 0.1876 -0.0000
vn -0.8767 0.3570 0.3225
vn 0.3033 0.1917 -0.9334
vn -0.7940 0.1917 -0.5769
vt 0.181819 0.000000
vt 0.909091 0.000000
vt 0.727273 0.000000
vt 0.545455 0.000000
vt 0.363637 0.000000
vt 0.272728 0.157461
vt 1.000000 0.157461
vt 0.090910 0.157461
vt 0.818182 0.157461
vt 0.636364 0.157461
vt 0.454546 0.157461
vt 0.181819 0.314921
vt 0.000000 0.314921
vt 0.909091 0.314921
vt 0.363637 0.314921
vt 0.454546 0.472382
vt 0.272728 0.472382
vt 0.090910 0.472382
vt 0.954545 0.078731
vt 0.136365 0.078731
vt 0.318182 0.078731
vt 0.227273 0.078731
vt 0.181819 0.157461
vt 0.363637 0.157461
vt 0.500000 0.078731
vt 0.409092 0.078731
vt 0.772727 0.078731
vt 0.863636 0.078731
vt 0.909091 0.157461
vt 0.590909 0.078731
vt 0.681818 0.078731
vt 0.727273 0.157461
vt 0.545455 0.157461
vt 0.318182 0.236191
vt 0.409092 0.236191
vt 0.136365 0.236191
vt 0.227273 0.236191
vt 0.863636 0.236191
vt 0.045455 0.236191
vt 0.954545 0.236191
vt 0.681818 0.236191
vt 0.772727 0.236191
vt 0.500000 0.236191
vt 0.590909 0.236191
vt 0.272728 0.314921
vt 0.090910 0.314921
vt 0.454546 0.314921
vt 0.136365 0.393651
vt 0.227273 0.393651
vt 0.409092 0.393651
vt 0.318182 0.393651
vt 0.045455 0.393651
vt 0.500000 0.393651
vt 0.000000 0.314921
vt 0.909091 0.314921
vt 0.727273 0.314921
vt 0.545455 0.314921
vt 0.090910 0.472382
vt 0.454546 0.472382
vt 0.636364 0.472382
vt 0.818182 0.472382
vt 0.863636 0.236191
vt 0.681818 0.236191
vt 0.772727 0.236191
vt 0.500000 0.236191
vt 0.590909 0.236191
vt 0.818182 0.314921
vt 0.636364 0.314921
vt 0.454546 0.314921
vt 0.045455 0.393651
vt 0.863636 0.393651
vt 0.681818 0.393651
vt 0.772727 0.393651
vt 0.500000 0.393651
vt 0.590909 0.393651
s 0
f 1/1/1 12/22/1 11/20/1
f 2/6/2 12/21/2 14/24/2
f 1/2/3 11/19/3 16/28/3
f 1/3/4 16/27/4 18/31/4
f 1/4/5 18/30/5 15/25/5
f 2/6/6 14/24/6 21/34/6
f 3/8/7 13/23/7 23/36/7
f 4/9/8 17/29/8 25/38/8
f 5/10/9 19/32/9 27/41/9
f 6/11/10 20/33/10 29/43/10
f 2/6/11 21/34/11 24/37/11
f 3/8/12 23/36/12 26/39/12
f 4/9/13 25/38/13 28/42/13
f 5/10/14 27/41/14 30/44/14
f 6/11/15 29/43/15 22/35/15
f 7/12/16 31/45/16 34/49/16
f 8/13/17 32/46/17 36/52/17
f 10/18/18 41/58/18 50/70/18
f 36/52/19 50/70/19 38/54/19
f 9/15/20 33/47/20 35/50/20
f 35/50/21 37/53/21 10/16/21
f 35/50/22 33/47/22 37/53/22
f 8/14/23 38/55/23 42/62/23
f 28/42/24 25/38/24 42/62/24
f 37/53/25 33/47/25 49/69/25
f 27/41/26 43/63/26 46/66/26
f 27/41/27 28/42/27 44/64/27
f 37/53/28 52/74/28 41/59/28
f 37/53/28 41/59/28 10/16/28
f 36/52/29 34/48/29 10/18/29
f 36/52/30 32/46/30 34/48/30
f 32/46/31 7/12/31 34/48/31
f 34/49/32 35/51/32 10/17/32
f 34/49/33 31/45/33 35/51/33
f 31/45/34 9/15/34 35/51/34
f 22/35/35 33/47/35 9/15/35
f 22/35/36 29/43/36 33/47/36
f 27/41/27 44/64/27 43/63/27
f 27/41/26 46/66/26 30/44/26
f 37/53/25 49/69/25 52/74/25
f 28/42/24 42/62/24 44/64/24
f 8/14/23 42/62/23 25/38/23
f 36/52/19 38/54/19 8/13/19
f 10/18/18 50/70/18 36/52/18
f 26/39/37 32/46/37 8/13/37
f 26/39/38 23/36/38 32/46/38
f 23/36/39 7/12/39 32/46/39
f 24/37/40 31/45/40 7/12/40
f 24/37/41 21/34/41 31/45/41
f 21/34/42 9/15/42 31/45/42
f 33/47/43 45/65/43 49/69/43
f 29/43/44 20/33/44 30/44/44
f 20/33/45 5/10/45 30/44/45
f 30/44/46 45/65/46 29/43/46
f 27/41/47 19/32/47 28/42/47
f 19/32/48 4/9/48 28/42/48
f 25/38/49 26/40/49 8/14/49
f 25/38/50 17/29/50 26/40/50
f 17/29/51 3/7/51 26/40/51
f 23/36/52 24/37/52 7/12/52
f 23/36/53 13/23/53 24/37/53
f 13/23/54 2/6/54 24/37/54
f 21/34/55 22/35/55 9/15/55
f 21/34/56 14/24/56 22/35/56
f 14/24/57 6/11/57 22/35/57
f 15/25/58 20/33/58 6/11/58
f 15/25/59 18/30/59 20/33/59
f 18/30/60 5/10/60 20/33/60
f 18/31/61 19/32/61 5/10/61
f 18/31/62 16/27/62 19/32/62
f 16/27/63 4/9/63 19/32/63
f 16/28/64 17/29/64 4/9/64
f 16/28/65 11/19/65 17/29/65
f 11/19/66 3/7/66 17/29/66
f 14/24/67 15/26/67 6/11/67
f 14/24/68 12/21/68 15/26/68
f 12/21/69 1/5/69 15/26/69
f 11/20/70 13/23/70 3/8/70
f 11/20/71 12/22/71 13/23/71
f 12/22/72 2/6/72 13/23/72
f 39/56/73 47/67/73 51/73/73
f 40/57/74 48/68/74 52/75/74
f 49/69/75 40/57/75 52/74/75
f 52/75/76 51/72/76 41/60/76
f 52/75/77 48/68/77 51/72/77
f 48/68/78 39/56/78 51/72/78
f 51/73/79 50/71/79 41/61/79
f 51/73/80 47/67/80 50/71/80
f 47/67/81 38/55/81 50/71/81
f 45/65/82 40/57/82 49/69/82
f 46/66/83 48/68/83 40/57/83
f 46/66/84 43/63/84 48/68/84
f 43/63/85 39/56/85 48/68/85
f 44/64/86 47/67/86 39/56/86
f 44/64/87 42/62/87 47/67/87
f 42/62/88 38/55/88 47/67/88
f 45/65/89 46/66/89 40/57/89
f 43/63/90 44/64/90 39/56/90
f 33/47/43 29/43/43 45/65/43
f 30/44/46 46/66/46 45/65/46
